<svg width="16" height="16" viewBox="0 0 16 16" fill="none" xmlns="http://www.w3.org/2000/svg">
    <path d="M831.43928 82.06522H183.530198c-61.694316 0-111.707175 49.700984-111.707175 111.01208v643.877588c0 61.30929 50.01316 111.013585 111.707175 111.013585h647.909082c61.694015 0 111.70868-49.703994 111.708681-111.013585V193.077601c0-61.311096-50.015267-111.012381-111.708681-111.012381z m37.911755 744.590876c0 26.496113-21.612383 47.975437-48.273464 47.975437H193.893112c-26.661082 0-48.274066-21.479625-48.274067-47.975437V203.377598c0-26.49521 21.612985-47.974835 48.274067-47.974835h627.184459c26.661082 0 48.273464 21.479324 48.273464 47.974835v623.278498z" fill="#626262"/>
    <path d="M573.334878 704.125119c103.987973 0 188.289901-84.297413 188.289901-188.295621 0-103.996703-84.301929-188.303448-188.289901-188.303449h-77.676998v0.2321c-14.765888 1.788163-25.87718 14.317944-25.886512 29.191904v317.740526c0.01174 14.876067 11.120324 27.398624 25.886512 29.181969v0.252872h77.676998z m-44.716105-317.751363h44.716105c70.731762 0.533438 127.938212 57.742297 128.471951 128.476467 0.542771 71.496999-56.97736 129.890139-128.471951 130.427491h-44.716105v-258.903958zM317.456948 326.988095c-16.248798 0.29893-29.175648 13.713461-28.87461 29.961958v317.767017c0.006623 16.246691 13.177614 29.412865 29.424004 29.408049h0.009031c16.24639-0.004215 29.410156-13.179119 29.403232-29.42581V356.949752a28.573272 28.573272 0 0 0 0-1.089455c-0.298629-16.248497-13.715568-29.175648-29.961657-28.872202z" fill="#626262"/>
</svg>
