<?xml version="1.0" standalone="no"?><!DOCTYPE svg PUBLIC "-//W3C//DTD SVG 1.1//EN" "http://www.w3.org/Graphics/SVG/1.1/DTD/svg11.dtd"><svg class="icon" width="200px" height="200.00px" viewBox="0 0 1024 1024" version="1.1" xmlns="http://www.w3.org/2000/svg"><path fill="#f4ea2a" d="M921.6 51.2c28.2368 0 51.2 22.9632 51.2 51.2l0 819.2c0 28.2368-22.9632 51.2-51.2 51.2L102.4 972.8c-28.2368 0-51.2-22.9632-51.2-51.2L51.2 102.4c0-28.2368 22.9632-51.2 51.2-51.2L921.6 51.2M921.6 0 102.4 0C45.8496 0 0 45.8496 0 102.4l0 819.2c0 56.5504 45.8496 102.4 102.4 102.4l819.2 0c56.5504 0 102.4-45.8496 102.4-102.4L1024 102.4C1024 45.8496 978.1504 0 921.6 0L921.6 0z"  /></svg>